<!-- fav-v2.svg — Cute neon leaf with sparkle -->
<svg xmlns="http://www.w3.org/2000/svg" viewBox="0 0 64 64">
  <title>Data With Drea</title>
  <defs>
    <radialGradient id="orb" cx="50%" cy="45%" r="60%">
      <stop offset="0" stop-color="#66fcf1"/>
      <stop offset="1" stop-color="#8ee4af"/>
    </radialGradient>
    <radialGradient id="vignette" cx="50%" cy="60%" r="65%">
      <stop offset="70%" stop-color="rgba(0,0,0,0)"/>
      <stop offset="100%" stop-color="rgba(0,0,0,0.18)"/>
    </radialGradient>
    <linearGradient id="ink" x1="0" y1="0" x2="1" y2="1">
      <stop offset="0" stop-color="#0b0f14"/><stop offset="1" stop-color="#0b0f14"/>
    </linearGradient>
  </defs>
  <rect x="0" y="0" width="64" height="64" rx="14" fill="#0b0f14"/>
  <circle cx="32" cy="32" r="22" fill="url(#orb)"/>
  <circle cx="32" cy="32" r="22" fill="url(#vignette)"/>
  <path d="M22 36 C22 27, 30 22, 37 22 C40 22, 44 23.5, 46 26 C44 28, 40 29, 36 29 C31 29, 27 31.5, 26 36 C25.5 38.5, 24 40.5, 22 42"
        fill="none" stroke="url(#ink)" stroke-width="3.2" stroke-linecap="round" stroke-linejoin="round"/>
  <path d="M24 38 C28 35, 33 33, 39 33" fill="none" stroke="url(#ink)" stroke-width="2.6" stroke-linecap="round"/>
  <path d="M47 18 m-2 0 l2 -2 l2 2 l-2 2 z m0 -2 l0 4 m-2 -2 l4 0"
        stroke="#eaf2ff" stroke-width="1.4" stroke-linecap="round" fill="none" opacity="0.9"/>
  <circle cx="32" cy="32" r="23.5" fill="none" stroke="#66fcf1" stroke-opacity="0.25" stroke-width="1.2"/>
</svg>
