<!-- MatchMaker AI — neon NLP vibes -->
<svg xmlns="http://www.w3.org/2000/svg" viewBox="0 0 640 360">
  <defs>
    <linearGradient id="g" x1="0" y1="0" x2="1" y2="1">
      <stop offset="0" stop-color="#66fcf1"/><stop offset="1" stop-color="#8ee4af"/>
    </linearGradient>
  </defs>
  <rect width="640" height="360" rx="20" fill="#0e141b"/>
  <rect x="10" y="10" width="620" height="340" rx="16" fill="none" stroke="url(#g)" stroke-width="4" opacity="0.75"/>
  <!-- nodes -->
  <g fill="#9bb0c8">
    <circle cx="140" cy="150" r="10"/><circle cx="190" cy="110" r="8"/><circle cx="240" cy="170" r="9"/>
    <circle cx="210" cy="230" r="8"/><circle cx="290" cy="120" r="7"/><circle cx="320" cy="200" r="10"/>
    <circle cx="370" cy="140" r="9"/><circle cx="420" cy="190" r="8"/><circle cx="470" cy="130" r="7"/>
    <circle cx="500" cy="210" r="10"/><circle cx="560" cy="170" r="9"/>
  </g>
  <!-- edges -->
  <g stroke="url(#g)" stroke-opacity="0.7" stroke-width="2">
    <path d="M140 150 L240 170 L320 200 L420 190 L500 210"/>
    <path d="M190 110 L240 170 L290 120 L370 140 L470 130 L560 170"/>
    <path d="M210 230 L240 170 L320 200 L420 190"/>
  </g>
  <!-- title -->
  <text x="32" y="320" fill="#eaf2ff" font-family="Poppins, sans-serif" font-weight="600" font-size="22">MatchMaker AI</text>
  <text x="32" y="345" fill="#9bb0c8" font-family="Poppins, sans-serif" font-size="16">NLP • Similarity • Ranking</text>
</svg>
